<svg xmlns="http://www.w3.org/2000/svg" version="1.1" xmlns:xlink="http://www.w3.org/1999/xlink" xmlns:svgjs="http://svgjs.dev/svgjs" width="1500" height="1500" viewBox="0 0 1500 1500"><rect width="1500" height="1500" fill="#ffffff"></rect><g transform="matrix(0.6666666666666666,0,0,0.6666666666666666,249.39393939393938,478.7757109065787)"><svg viewBox="0 0 396 215" data-background-color="#ffffff" preserveAspectRatio="xMidYMid meet" height="814" width="1500" xmlns="http://www.w3.org/2000/svg" xmlns:xlink="http://www.w3.org/1999/xlink"><g id="tight-bounds" transform="matrix(1,0,0,1,0.2400000000000091,-0.04320241691841886)"><svg viewBox="0 0 395.52 215.08640483383684" height="215.08640483383684" width="395.52"><g><svg viewBox="0 0 395.52 215.08640483383684" height="215.08640483383684" width="395.52"><g><svg viewBox="0 0 395.52 215.08640483383684" height="215.08640483383684" width="395.52"><g id="textblocktransform"><svg viewBox="0 0 395.52 215.08640483383684" height="215.08640483383684" width="395.52" id="textblock"><g><svg viewBox="0 0 395.52 215.08640483383684" height="215.08640483383684" width="395.52"><g transform="matrix(1,0,0,1,0,0)"><svg width="395.52" viewBox="1.25 -34.9 66.19 36" height="215.08640483383684" data-palette-color="#242124"><path d="M17.85-5.75L17.85-5.75Q17.85-2.9 15.58-1.03 13.3 0.85 10.15 0.85L10.15 0.85Q5.55 0.85 3.4-1.93 1.25-4.7 1.25-9.45L1.25-9.45Q1.25-14.5 3.5-18.4L3.5-18.4Q4.6-20.4 6.65-21.55 8.7-22.7 11.45-22.7L11.45-22.7Q15.6-22.7 17.3-19.9L17.3-19.9Q18-18.75 18-17.2L18-17.2Q18-14.8 16-13.6L16-13.6Q15.2-13.15 14.53-13.15 13.85-13.15 13.43-13.23 13-13.3 12.3-13.9 11.6-14.5 11.6-15.55L11.6-15.55Q11.65-16.1 12.45-16.45L12.45-16.45Q13.2-16.9 13.2-18.05L13.2-18.05Q13.2-20 10.8-20L10.8-20Q10.2-20 9.38-19.48 8.55-18.95 8-18.13 7.45-17.3 6.98-15.53 6.5-13.75 6.5-12.13 6.5-10.5 6.63-9.68 6.75-8.85 7.18-7.43 7.6-6 8.78-5.1 9.95-4.2 11.7-4.2L11.7-4.2Q13.8-4.2 15.4-5.95L15.4-5.95Q16.05-6.65 16.45-7.65L16.45-7.65Q16.65-8.05 16.95-8.05L16.95-8.05Q17.4-8.05 17.63-7.23 17.85-6.4 17.85-5.75ZM36-17.2L35.75-13.4 35.95-11.65Q35.95-10.7 34.15-10.7L34.15-10.7Q30.5-10.7 30.5-13.45L30.5-13.45Q30.5-14.1 30.85-15.25 31.2-16.4 31.2-17.25 31.2-18.1 30.7-18.73 30.2-19.35 29.25-19.35 28.3-19.35 27.62-18.68 26.95-18 26.8-17.3L26.8-17.3 26.6-16.6Q26.3-15.05 26.3-11.43 26.3-7.8 26.4-5.73 26.5-3.65 26.6-2.88 26.7-2.1 26.7-1.95L26.7-1.95Q26.7-0.7 25.15 0.08 23.6 0.85 22.05 0.85 20.5 0.85 20.5 0.2L20.5 0.2 20.75-1.35Q21.45-5.7 21.45-12.7 21.45-19.7 20.95-22.2L20.95-22.2Q20.95-22.8 22-22.8L22-22.8Q24.7-22.8 25.6-20.95L25.6-20.95Q25.65-20.75 25.77-20.75 25.9-20.75 26.45-21.2L26.45-21.2Q28.1-22.55 30.35-22.55L30.35-22.55Q31.75-22.55 33.15-22L33.15-22Q36-20.85 36-17.2L36-17.2ZM43.4-26.75L43.4-26.75 42.2-26.8Q40.85-26.8 40.45-26.15L40.45-26.15Q40.35-26 40.2-26L40.2-26Q39.55-26 39.55-28.23 39.55-30.45 40.22-31.05 40.9-31.65 42.57-31.65 44.25-31.65 44.85-31.08 45.45-30.5 45.45-29.15 45.45-27.8 45-27.28 44.55-26.75 43.4-26.75ZM39.4-1.5L39.4-1.5 39.95-13.15Q39.95-17.3 39-18.8L39-18.8Q38.7-19.3 38.3-19.55L38.3-19.55Q38-19.65 38-19.95L38-19.95Q38-20.85 40.55-21.7 43.1-22.55 44.27-22.55 45.45-22.55 45.5-21.95L45.5-21.95Q45.5-20.95 45.22-16.28 44.95-11.6 44.95-6.45 44.95-1.3 45.55-0.05L45.55-0.05Q45.7 0.2 45.7 0.45L45.7 0.45Q45.7 1.1 43.8 1.1 41.9 1.1 39.9 0.1L39.9 0.1Q39.4-0.15 39.4-1.5ZM58.84-17.25L58.84-17.25 57.69-16.95Q56.79-16.95 56.79-18.63 56.79-20.3 58.02-21.33 59.24-22.35 61.14-22.35L61.14-22.35Q62.19-22.35 63.39-21.73 64.59-21.1 65.39-20.18 66.19-19.25 66.82-17.28 67.44-15.3 67.44-12.65L67.44-12.65Q67.44-6.55 64.17-2.75 60.89 1.05 54.69 1.05L54.69 1.05Q52.89 1.05 51.14 0.7L51.14 0.7 50.64 0.6Q49.99 0.4 49.89-0.1L49.89-0.1Q49.74-1.15 49.74-5.05L49.74-5.05 50.04-21.25Q50.04-25 49.84-27L49.84-27 49.74-27.7Q49.64-29.1 49.17-30.1 48.69-31.1 48.24-31.4L48.24-31.4 47.84-31.65Q47.49-31.85 47.49-32.1L47.49-32.1Q47.49-32.85 49.99-33.88 52.49-34.9 53.64-34.9 54.79-34.9 54.84-34.3L54.84-34.3Q55.19-31.25 55.19-25.6L55.19-25.6 54.94-13.6Q54.94-5.75 55.39-2.75L55.39-2.75Q55.44-2.05 56.97-2.05 58.49-2.05 59.59-2.9 60.69-3.75 61.24-5.15L61.24-5.15Q62.24-7.7 62.24-10.8L62.24-10.8Q62.24-12.25 61.84-13.95L61.84-13.95Q61.14-17.25 58.84-17.25Z" opacity="1" transform="matrix(1,0,0,1,0,0)" fill="#000000" class="wordmark-text-0" data-fill-palette-color="primary" id="text-0"></path></svg></g></svg></g></svg></g></svg></g></svg></g><defs></defs></svg><rect width="395.52" height="215.08640483383684" fill="none" stroke="none" visibility="hidden"></rect></g></svg></g></svg>